<?xml version="1.0" standalone="no"?>
<!DOCTYPE svg PUBLIC "-//W3C//DTD SVG 20010904//EN"
 "http://www.w3.org/TR/2001/REC-SVG-20010904/DTD/svg10.dtd">
<svg version="1.0" xmlns="http://www.w3.org/2000/svg"
 width="601.000000pt" height="440.000000pt" viewBox="0 0 601.000000 440.000000"
 preserveAspectRatio="xMidYMid meet">
<metadata>
Created by potrace 1.16, written by Peter Selinger 2001-2019
</metadata>
<g transform="translate(0.000000,440.000000) scale(0.100000,-0.100000)"
fill="#ff416c" stroke="none">
<path d="M1418 3203 c-3 -4 -54 -240 -113 -524 l-109 -517 -55 -11 c-30 -6
-57 -11 -61 -11 -3 0 4 93 16 208 12 114 21 208 20 209 -1 0 -19 3 -41 5 -39
3 -40 3 -47 -37 -4 -22 -7 -59 -7 -83 l-1 -43 -82 6 c-46 4 -86 10 -90 14 -3
3 -3 40 2 81 4 41 6 78 4 82 -7 10 -84 10 -84 1 0 -5 -9 -97 -21 -207 -23
-218 -23 -219 36 -214 l30 3 9 88 9 89 81 -7 c44 -4 84 -10 87 -14 4 -3 3 -33
-1 -66 -14 -103 -13 -115 12 -115 53 0 -9 -20 -159 -50 -89 -18 -167 -36 -172
-39 -6 -4 -7 -18 -3 -32 l7 -26 555 118 555 117 415 -182 c228 -101 1003 -443
1721 -760 719 -317 1311 -576 1316 -576 5 0 15 11 21 24 11 24 8 25 -236 133
-136 60 -894 395 -1685 743 -1036 457 -1433 637 -1420 642 10 4 619 134 1353
288 734 155 1343 283 1353 286 17 5 24 48 9 58 -4 3 -28 0 -53 -5 -24 -6 -661
-140 -1415 -300 l-1371 -289 -119 54 c-118 53 -119 53 -131 32 -7 -11 -12 -24
-13 -27 0 -4 34 -22 75 -40 41 -18 72 -36 68 -40 -9 -8 -413 -93 -418 -87 -1
1 45 231 104 511 75 352 104 507 95 507 -7 0 -19 3 -27 6 -8 3 -17 2 -19 -3z"/>
<path d="M2928 3058 c-16 -5 -28 -13 -28 -18 0 -4 14 -38 30 -75 17 -37 30
-70 30 -75 0 -6 -140 -70 -153 -70 -3 0 -19 34 -37 75 -18 41 -34 75 -36 75
-2 0 -19 -8 -39 -17 -25 -12 -34 -22 -30 -32 36 -99 163 -371 173 -371 7 0 26
7 42 15 l29 15 -28 63 c-49 110 -51 102 25 137 37 16 72 30 79 30 7 0 28 -36
48 -80 l36 -79 31 11 c17 6 34 16 36 23 7 17 -156 385 -170 384 -6 0 -23 -5
-38 -11z"/>
<path d="M5026 2522 c-2 -4 -40 -120 -85 -259 l-81 -251 -113 -103 c-61 -57
-113 -108 -115 -114 -1 -6 9 -22 23 -35 l25 -24 58 57 c32 31 60 57 64 57 3 0
-21 -84 -54 -186 -48 -149 -57 -188 -46 -195 32 -21 44 -9 68 66 13 41 25 73
27 71 3 -2 64 23 136 56 73 33 143 64 157 69 27 10 21 3 -135 -139 l-79 -72
29 -30 30 -29 153 141 c83 77 152 145 152 152 0 7 -17 28 -37 48 l-38 36 -150
-68 c-82 -37 -151 -64 -153 -60 -1 4 34 68 78 143 44 74 80 139 80 143 0 5
-17 25 -37 46 l-37 38 68 210 c37 115 65 214 62 219 -7 11 -45 21 -50 13z"/>
<path d="M3782 2358 c-65 -157 -101 -245 -121 -295 l-21 -53 48 0 47 0 19 51
18 51 45 -6 c25 -3 60 -6 78 -6 31 0 34 -3 45 -51 14 -56 21 -62 73 -57 l34 3
-47 160 c-26 88 -55 186 -64 218 l-17 57 -53 0 -54 0 -30 -72z"/>
<path d="M1835 1886 c-49 -29 -91 -58 -92 -63 -5 -13 196 -363 208 -363 11 0
199 109 199 115 0 14 -25 55 -33 55 -5 0 -34 -14 -64 -31 -29 -17 -60 -28 -68
-25 -8 3 -23 23 -35 45 l-20 40 57 33 c31 19 58 38 60 44 2 6 -5 21 -15 33
l-18 23 -52 -31 c-29 -17 -59 -31 -66 -31 -10 0 -46 58 -46 75 0 3 25 19 56
36 31 18 58 38 61 45 6 17 -15 54 -30 53 -7 0 -52 -24 -102 -53z"/>
<path d="M2860 1502 c-61 -62 -46 -142 38 -208 65 -50 77 -75 53 -105 -17 -22
-21 -22 -62 -10 -24 7 -59 22 -77 33 -18 11 -34 19 -36 17 -2 -2 -6 -21 -10
-41 -7 -36 -5 -38 36 -59 24 -12 68 -24 103 -26 93 -7 145 35 145 118 0 45
-23 79 -84 128 -57 45 -69 74 -44 99 18 18 45 15 98 -12 l47 -24 17 29 c9 16
15 33 12 38 -14 22 -99 51 -152 51 -48 0 -60 -4 -84 -28z"/>
</g>
</svg>
