<svg id="Layer_1" data-name="Layer 1" xmlns="http://www.w3.org/2000/svg" viewBox="0 0 464.08 397.55"><defs><style>.cls-1{fill:#f85f6a;}</style></defs><title>elixer</title><path class="cls-1" d="M.29,149.48c1.21.62,2.23,1.11,3.22,1.65a236,236,0,0,0,47.42,19.48c14.52,4.21,29.27,7.64,43.67,12.21C104,185.8,113,190.06,122,194a279.94,279.94,0,0,0,41.56,14.62,78.93,78.93,0,0,0,8,1.8c1.61.25,3.63.27,4.15-1.79s-.79-3.46-2.55-4.37c-4.58-2.38-9.21-4.65-13.73-7.13a39.27,39.27,0,0,1-4.55-3.43l.37-.92a67.47,67.47,0,0,1,8.77.06c7.17.95,14.28,2.34,21.45,3.31a92.11,92.11,0,0,0,10.9.56c.74,0,1.49-.8,2.23-1.23-.48-.79-.78-2-1.48-2.3-5-2.36-10.1-4.65-15.24-6.77-4-1.64-8.13-2.95-12.16-4.5a17,17,0,0,1-2.78-1.74l.14-.85a16.29,16.29,0,0,1,3.16-.75c9.15-.34,18.3-.56,27.44-.93a45,45,0,0,0,7.13-.91,2.57,2.57,0,0,0,1.76-1.7,2.6,2.6,0,0,0-1.43-2,81.56,81.56,0,0,0-11.88-3.61c-8.66-1.59-17.41-2.71-26.11-4.06a20.1,20.1,0,0,1-2.89-.9l0-.77a28,28,0,0,1,3.11-1.08c9.59-2,19.2-3.95,28.78-6a21.29,21.29,0,0,0,5.32-2.07,3.08,3.08,0,0,0,1.59-2.22,2.91,2.91,0,0,0-1.94-1.9c-3.57-.77-7.19-1.83-10.78-1.78-9.31.13-18.6.92-27.91,1.18a119.28,119.28,0,0,1-15.59-.5c-3.11-.32-4-2.76-2.06-5.31a55.38,55.38,0,0,1,6.82-7.22c3.39-3.09,7.09-5.9,8.59-10.47a8.47,8.47,0,0,0,.33-4.14c-.81-4-2.7-4.48-5.68-1.83-11.4,10.14-24.59,16.78-39.24,21-16,4.63-30-.21-43.37-8.4-15.24-9.3-28.4-21.12-41.1-33.57-6-5.87-12.53-11.17-19-16.55-1.8-1.5-2.42-2.53-1.36-4.92,9.6-21.55,23.61-39.54,42.79-53.33A113.89,113.89,0,0,1,107.82,3.5,141.86,141.86,0,0,1,162.2,7.92c25.22,6.94,47.68,19,66.5,37.42,1.65,1.62,2.77,1.75,4.51,0C250.46,28.07,270.89,15.87,293.9,8a140.88,140.88,0,0,1,46-8c38.32,0,69.1,15.84,93.23,45.19A133.35,133.35,0,0,1,459,96a144.91,144.91,0,0,1,4.52,51,157.21,157.21,0,0,1-17.24,58.5c-1.78,3.43-1.8,3.45-5.15,1.71A397.31,397.31,0,0,0,383,182.68c-8.59-2.85-17.36-5.18-26-7.72-10.17-3-19.74-7.39-29.35-11.82a236.69,236.69,0,0,0-40.08-14.4,41.72,41.72,0,0,0-7.38-1.09c-1.73-.12-4.07.06-4.17,2.16-.06,1.33,1.34,3.17,2.6,4,2.32,1.58,5,2.53,7.54,3.87,2.78,1.49,5.52,3.07,8.22,4.71a27.2,27.2,0,0,1,3,2.64,20,20,0,0,1-3.94.55c-5.37-.53-10.74-1.12-16.1-1.83-5.85-.77-11.67-1.75-17.52-2.52a15.25,15.25,0,0,0-4.47.17c-.78.14-1.9.78-2,1.4a2.61,2.61,0,0,0,1.19,2.15,103,103,0,0,0,9.66,4.62c5.4,2.15,10.92,4,16.36,6.06a47.28,47.28,0,0,1,4.34,2.15l0,.75a8.47,8.47,0,0,1-2,.86,70.86,70.86,0,0,1-7.93.84c-6.83.15-13.66.05-20.48.21a41.1,41.1,0,0,0-7.14.95c-.77.16-2,1-1.95,1.51a2.94,2.94,0,0,0,1.44,2.27,59.11,59.11,0,0,0,10.4,3.34c8.92,1.59,17.91,2.75,26.87,4.14a31.11,31.11,0,0,1,3.72,1l.11.94c-2.13.59-4.24,1.28-6.4,1.74-9.26,2-18.53,3.94-27.78,6a10.24,10.24,0,0,0-3.38,1.54c-.69.46-1.64,1.48-1.5,2a3.11,3.11,0,0,0,2,1.89c3.22.74,6.52,1.74,9.78,1.69,10.14-.18,20.26-.88,30.4-1.19a96.78,96.78,0,0,1,13.41.38c3.78.41,4.9,3,2.57,6s-5.31,5.23-7.81,8-5.22,5.63-7,8.89c-.89,1.61-.42,4.39.25,6.36.76,2.26,2,2.28,3.76.65a90.94,90.94,0,0,1,26.83-17.49,76.89,76.89,0,0,1,24.81-6.24c7.49-.48,14.45,2,21.1,5.14a103.15,103.15,0,0,1,33.85,25.52,74.5,74.5,0,0,1,5,7.13c1.37,2,1,3.64-.7,5.31-13.39,13.45-26.31,27.39-40.17,40.33-39.31,36.68-82.16,68.77-127.56,97.52-3.75,2.37-6.3,2.37-10.09,0-48.42-30.19-94.19-63.91-136.51-102.23-21.2-19.19-41.25-39.5-59.1-61.9-12.62-15.83-22.76-33.11-28.09-52.76C2.91,169.77,1.75,160.3,0,151A5.59,5.59,0,0,1,.29,149.48Z"/></svg>